<svg width="1024" height="1024" viewBox="0 0 1024 1024" xmlns="http://www.w3.org/2000/svg">
  <path fill="black" fill-rule="evenodd" d="
      M 512 870

      C 462 870 420 828 420 778
      C 420 740 444 706 478 692
      L 478 560

      C 478 500 450 460 388 420
      C 318 375 260 320 260 220

      C 260 170 302 128 352 128
      C 402 128 444 170 444 220
      C 444 258 420 292 386 306

      C 386 352 408 380 458 410
      C 492 430 516 456 530 488

      C 544 440 578 394 640 350
      C 712 300 748 250 748 170

      C 748 120 790 78 840 78
      C 890 78 932 120 932 170
      C 932 220 890 262 840 262
      C 804 262 772 242 756 212

      C 748 264 714 312 654 354
      C 584 404 546 462 546 540

      L 546 692

      C 580 706 604 740 604 778
      C 604 828 562 870 512 870

      Z

      M 512 814
      A 36 36 0 1 0 512 742
      A 36 36 0 1 0 512 814

      Z

      M 352 256
      A 36 36 0 1 0 352 184
      A 36 36 0 1 0 352 256

      Z

      M 840 206
      A 36 36 0 1 0 840 134
      A 36 36 0 1 0 840 206
    "></path>
</svg>